<?xml version="1.0" encoding="utf-8"?>
<!-- Generator: Adobe Illustrator 23.0.1, SVG Export Plug-In . SVG Version: 6.00 Build 0)  -->
<svg version="1.1" id="Layer_3" xmlns="http://www.w3.org/2000/svg" xmlns:xlink="http://www.w3.org/1999/xlink" x="0px" y="0px"
	 viewBox="0 0 76 71.2" style="enable-background:new 0 0 76 71.2;" xml:space="preserve">
<style type="text/css">
	.st0{fill-rule:evenodd;clip-rule:evenodd;fill:#0A0B09;}
</style>
<g>
	<path class="st0" d="M28,34.6c3.9,0,7-3.1,7-7c0-3.9-3.1-7-7-7c-3.9,0-7,3.1-7,7C21,31.5,24.2,34.6,28,34.6z M28,22.6
		c2.8,0,5,2.2,5,5c0,2.8-2.2,5-5,5c-2.8,0-5-2.2-5-5C23,24.9,25.3,22.6,28,22.6z"/>
	<circle class="st0" cx="28" cy="27.6" r="2"/>
	<path class="st0" d="M54.1,38.9h-32c-0.6,0-1,0.4-1,1c0,2.7,1,5.4,2.7,7.9c1.2,1.6,2.7,3.1,4.5,4.3c0.4,0.3,0.9,0.6,1.4,0.8
		c1.9,1,4.1,1.7,6.5,2c0.6,0.1,1.2,0.1,1.8,0.1c10,0,17-7.9,17-15C55.1,39.4,54.6,38.9,54.1,38.9z M42.4,52.3
		c-1.4,0.4-2.8,0.6-4.3,0.6c-2.5,0-4.9-0.6-6.9-1.6c-0.8-0.4-1.6-0.9-2.3-1.4c-0.4-0.3-0.7-0.5-1-0.8c-1-0.9-1.8-1.8-2.6-2.8
		c-0.2-0.3-0.5-0.7-0.7-1c-0.8-1.4-1.3-2.9-1.5-4.3H53C52.5,45.7,48.3,50.6,42.4,52.3z"/>
	<path class="st0" d="M48,20.6c-3.9,0-7,3.1-7,7c0,3.9,3.1,7,7,7s7-3.1,7-7C55,23.8,51.9,20.6,48,20.6z M48,32.6c-2.8,0-5-2.2-5-5
		c0-2.8,2.2-5,5-5s5,2.2,5,5C53,30.4,50.8,32.6,48,32.6z"/>
	<circle class="st0" cx="48" cy="27.6" r="2"/>
	<path class="st0" d="M63,34.2C63,34.2,63,34.2,63,34.2L63,34.2c-0.4-7.7-4.4-14.5-10.2-18.8c0,0,0,0,0,0c-0.4-0.3-0.9-0.6-1.3-0.9
		c0,0-0.1-0.1-0.1-0.1c-0.9-0.6-1.9-1.1-2.8-1.5c-0.1,0-0.2-0.1-0.3-0.1c-0.5-0.2-0.9-0.4-1.4-0.6c0,0,0,0-0.1,0
		c-0.5-0.2-1-0.4-1.5-0.5c-0.1,0-0.2-0.1-0.3-0.1c-0.4-0.1-0.8-0.2-1.3-0.3c-0.1,0-0.2-0.1-0.3-0.1c-0.5-0.1-1-0.2-1.6-0.3
		c-0.1,0-0.2,0-0.3,0c-0.4-0.1-0.9-0.1-1.3-0.1c-0.1,0-0.3,0-0.4,0c-0.5,0-1.1-0.1-1.6-0.1s-1.1,0-1.6,0.1c-0.1,0-0.3,0-0.4,0
		c-0.4,0-0.9,0.1-1.3,0.1c-0.1,0-0.2,0-0.3,0c-0.5,0.1-1,0.2-1.6,0.3c-0.1,0-0.2,0.1-0.3,0.1c-0.4,0.1-0.8,0.2-1.3,0.3
		c-0.1,0-0.2,0.1-0.3,0.1c-0.5,0.2-1,0.3-1.5,0.5c0,0,0,0-0.1,0c-0.5,0.2-0.9,0.4-1.4,0.6c-0.1,0-0.2,0.1-0.3,0.1
		c-1,0.5-1.9,1-2.8,1.5c0,0-0.1,0.1-0.1,0.1c-0.5,0.3-0.9,0.6-1.3,0.9c0,0,0,0,0,0c-5.9,4.3-9.8,11.1-10.2,18.8l0,0c0,0,0,0,0,0
		c0,0.5,0,0.9,0,1.4c0,3.9,0.9,7.6,2.5,10.8c1.2,2.5,2.9,4.9,4.9,6.8c0.6,0.6,1.2,1.1,1.8,1.6c1.9,1.5,3.9,2.8,6.2,3.7
		c0.7,0.3,1.5,0.6,2.3,0.8s1.6,0.5,2.4,0.6c0.4,0.1,0.8,0.2,1.2,0.2c0.8,0.1,1.7,0.2,2.5,0.3c0.4,0,0.9,0,1.3,0s0.9,0,1.3,0
		c0.9,0,1.7-0.1,2.5-0.3c0.4-0.1,0.8-0.1,1.2-0.2c0.8-0.2,1.6-0.4,2.4-0.6c0.8-0.2,1.5-0.5,2.3-0.8c2.2-1,4.3-2.2,6.2-3.7
		c0.6-0.5,1.2-1,1.8-1.6c2-2,3.6-4.3,4.9-6.8c1.6-3.3,2.5-7,2.5-10.8C63,35.2,63,34.7,63,34.2z M38,58.6c-12.7,0-23-10.3-23-23
		c0-0.6,0-1.2,0.1-1.8c0,0,0,0,0,0c0.2-2.9,1-5.6,2.2-8.1c0,0,0,0,0,0c1.8-3.8,4.7-7.1,8.3-9.4c0,0,0.1,0,0.1-0.1
		c0.9-0.5,1.8-1,2.7-1.5c0.1,0,0.1-0.1,0.2-0.1c0.4-0.2,0.8-0.4,1.3-0.5c0.1,0,0.1,0,0.2-0.1c0.5-0.2,0.9-0.3,1.4-0.5
		c0.1,0,0.2,0,0.2-0.1c0.4-0.1,0.8-0.2,1.2-0.3c0.1,0,0.2-0.1,0.3-0.1c0.5-0.1,1-0.2,1.5-0.3c0.1,0,0.1,0,0.2,0
		c0.4-0.1,0.9-0.1,1.3-0.1c0.1,0,0.3,0,0.4,0c0.5,0,1-0.1,1.5-0.1s1,0,1.5,0.1c0.1,0,0.3,0,0.4,0c0.4,0,0.9,0.1,1.3,0.1
		c0.1,0,0.1,0,0.2,0c0.5,0.1,1,0.2,1.5,0.3c0.1,0,0.2,0,0.3,0.1c0.4,0.1,0.8,0.2,1.2,0.3c0.1,0,0.2,0,0.2,0.1c0.5,0.1,1,0.3,1.4,0.5
		c0.1,0,0.1,0,0.2,0.1c0.4,0.2,0.8,0.3,1.3,0.5c0.1,0,0.1,0.1,0.2,0.1c0.9,0.4,1.8,0.9,2.7,1.5c0,0,0.1,0,0.1,0.1
		c3.6,2.3,6.4,5.6,8.3,9.4c0,0,0,0,0,0c1.2,2.5,2,5.2,2.2,8.1c0,0,0,0,0,0c0,0.6,0.1,1.2,0.1,1.8C61,48.3,50.7,58.6,38,58.6z"/>
</g>
</svg>
