<?xml version="1.0" encoding="utf-8"?>
<!-- Generator: Adobe Illustrator 23.0.1, SVG Export Plug-In . SVG Version: 6.00 Build 0)  -->
<svg version="1.1" id="Layer_3" xmlns="http://www.w3.org/2000/svg" xmlns:xlink="http://www.w3.org/1999/xlink" x="0px" y="0px"
	 viewBox="0 0 76 71.2" style="enable-background:new 0 0 76 71.2;" xml:space="preserve">
<style type="text/css">
	.st0{fill-rule:evenodd;clip-rule:evenodd;fill:#9E9E9E;}
</style>
<g>
	<path class="st0" d="M27.8,35.6c6.3,0,9.4-8.2,4.6-12.3c-4.9-4.2-12.5,0.1-11.5,6.4C21.4,33.1,24.4,35.6,27.8,35.6z M27.8,23.6
		c2.8,0,5,2.2,5,5c0,2.7-2.2,4.9-4.9,5c-2.7,0.1-5-2-5.1-4.7C22.7,26.1,25,23.6,27.8,23.6z"/>
	<path class="st0" d="M27.8,26.6c2.6,0,2.6,4,0,4C25.2,30.6,25.2,26.6,27.8,26.6z"/>
	<path class="st0" d="M53.9,40.2c-8.2,0-16.4,0-24.6,0c-1.9,0-3.8,0-5.7,0c-1,0-2.6-0.3-2.7,1c-0.3,2.3,1,5.1,2.1,7
		c1.1,1.9,2.8,3.6,4.5,4.9c3.7,2.7,8.5,3.8,13,3.1c4.2-0.6,8.1-2.8,10.8-6c1.2-1.4,2.2-3.1,2.8-4.8C54.4,44.4,55.7,40.2,53.9,40.2z
		 M42.2,53.5c-4.1,1.2-8.6,0.6-12.2-1.6c-3.5-2.1-6.5-5.6-7.1-9.7c8.7,0,17.5,0,26.2,0c1.2,0,2.5,0,3.7,0
		C52.2,47.7,47.3,52.1,42.2,53.5z"/>
	<path class="st0" d="M47.8,21.6c-6.3,0-9.4,8.2-4.6,12.3c4.8,4.2,12.5-0.1,11.5-6.4C54.2,24.2,51.2,21.6,47.8,21.6z M47.8,33.6
		c-2.8,0-5-2.2-5-5c0-2.8,2.2-5,5-5c2.8,0,5,2.2,5,5C52.8,31.4,50.6,33.6,47.8,33.6z"/>
	<path class="st0" d="M47.8,26.6c2.6,0,2.6,4,0,4C45.2,30.6,45.2,26.6,47.8,26.6z"/>
	<path class="st0" d="M62.8,35.2c-0.3-5.1-2.2-10-5.3-14c-3-3.8-6.9-6.6-11.5-8.2c-4.6-1.6-9.8-1.6-14.4-0.4
		c-4.6,1.1-8.8,3.8-11.9,7.3c-3.8,4.2-6.1,9.7-6.4,15.4c0,5.5,1.1,10.6,4.3,15.3c2.9,4.4,7.4,7.8,12.4,9.5c2.5,0.8,5.2,1.4,7.8,1.4
		c2.7,0,5.1-0.4,7.7-1c5.2-1.3,9.9-4.8,13.1-9c1.8-2.4,3.2-5.1,3.8-8.1c0.3-1.5,0.4-3,0.5-4.5C62.8,38.3,62.7,35.2,62.8,35.2z
		 M37.8,59.6c-8.9,0-17.3-5.4-21-13.5c-4.3-9.5-1.4-21.1,6.7-27.5c3.5-2.8,8.1-4.9,12.6-5c2.4,0,4.9-0.2,7.2,0.6
		c2.1,0.6,4.1,1.3,6,2.5C58.4,22,63.1,33,60,43.2C57,52.8,47.9,59.6,37.8,59.6z"/>
</g>
</svg>
