<?xml version="1.0" encoding="utf-8"?>
<!-- Generator: Adobe Illustrator 23.0.1, SVG Export Plug-In . SVG Version: 6.00 Build 0)  -->
<svg version="1.1" id="Layer_1" xmlns="http://www.w3.org/2000/svg" xmlns:xlink="http://www.w3.org/1999/xlink" x="0px" y="0px"
	 viewBox="0 0 76 71.2" style="enable-background:new 0 0 76 71.2;" xml:space="preserve">
<style type="text/css">
	.st0{fill-rule:evenodd;clip-rule:evenodd;fill:#0A0B09;}
</style>
<g>
	<g id="Page-1">
		<g id="Group" transform="translate(10.000000, 0.000000)">
			<path id="Fill-21" class="st0" d="M16.4,39.9c0.2,0.2,0.5,0.3,0.7,0.3c0.3,0,0.5-0.1,0.7-0.3l1.8-1.8l1.8,1.8
				c0.2,0.2,0.5,0.3,0.7,0.3c0.3,0,0.5-0.1,0.7-0.3c0.4-0.4,0.4-1,0-1.4L21,36.7l1.8-1.8c0.4-0.4,0.4-1,0-1.4s-1-0.4-1.4,0l-1.8,1.8
				l-1.8-1.8c-0.4-0.4-1-0.4-1.4,0s-0.4,1,0,1.4l1.8,1.8l-1.8,1.8C16,38.8,16,39.5,16.4,39.9"/>
			<path id="Fill-22" class="st0" d="M33.4,39.9c0.2,0.2,0.5,0.3,0.7,0.3s0.5-0.1,0.7-0.3l1.8-1.8l1.8,1.8c0.2,0.2,0.5,0.3,0.7,0.3
				s0.5-0.1,0.7-0.3c0.4-0.4,0.4-1,0-1.4L38,36.7l1.8-1.8c0.4-0.4,0.4-1,0-1.4s-1-0.4-1.4,0l-1.8,1.8l-1.8-1.8c-0.4-0.4-1-0.4-1.4,0
				s-0.4,1,0,1.4l1.8,1.8l-1.8,1.8C33,38.8,33,39.5,33.4,39.9"/>
			<path id="Fill-23" class="st0" d="M35.1,21.6v-0.4h5c0.6,0,1-0.4,1-1v-2c0-0.6-0.4-1-1-1s-1,0.4-1,1v1h-4v-7c0-3.9-3.1-7-7-7
				s-7,3.1-7,7v7h-4v-1c0-0.6-0.4-1-1-1s-1,0.4-1,1v2c0,0.6,0.4,1,1,1h5v0.4c-7.8,2.9-13,10.3-13,18.7c0,7.4,4,14.1,10.5,17.6
				c0.1,0.1,0.3,0.1,0.5,0.1c0.4,0,0.7-0.2,0.9-0.5c0.3-0.5,0.1-1.1-0.4-1.4c-5.8-3.1-9.5-9.2-9.5-15.8c0-7.3,4.4-13.8,11-16.5v5.5
				h-1c-0.6,0-1,0.4-1,1s0.4,1,1,1h16c0.6,0,1-0.4,1-1s-0.4-1-1-1h-1v-5.4c6.5,2.8,10.8,9.3,10.8,16.5c0,6.5-3.6,12.6-9.3,15.7
				c-0.5,0.3-0.7,0.9-0.4,1.4c0.2,0.3,0.5,0.5,0.9,0.5c0.2,0,0.3,0,0.5-0.1c6.4-3.5,10.3-10.2,10.3-17.5
				C47.9,31.9,42.8,24.5,35.1,21.6L35.1,21.6z M28.1,7.2c2.8,0,5,2.2,5,5v7h-10v-7C23.1,9.4,25.3,7.2,28.1,7.2L28.1,7.2z M23.1,21.2
				h4v8h-4V21.2z M29.1,21.2h4v8h-4C29.1,29.2,29.1,21.2,29.1,21.2z"/>
			<path id="Fill-24" class="st0" d="M40.1,44.2c0-0.6-0.4-1-1-1h-22c-0.6,0-1,0.4-1,1c0,4.1,1.6,6.8,5,8.9v7.1
				c0,0.3,0.2,0.6,0.4,0.8l6,4c0.2,0.1,0.4,0.2,0.6,0.2s0.4-0.1,0.6-0.2l6-4c0.3-0.2,0.4-0.5,0.4-0.8V53
				C38.5,50.9,40.1,48.1,40.1,44.2L40.1,44.2z M35.1,50.5v-5.4h3C37.9,47.4,36.9,49.1,35.1,50.5L35.1,50.5z M18.1,45.2h3v5.5
				C19.3,49.2,18.3,47.5,18.1,45.2L18.1,45.2z M28.1,63l-5-3.3V45.2h4v10c0,0.6,0.4,1,1,1s1-0.4,1-1v-10h4v14.5L28.1,63L28.1,63z"/>
		</g>
	</g>
</g>
</svg>
