<?xml version="1.0" encoding="utf-8"?>
<!-- Generator: Adobe Illustrator 23.0.1, SVG Export Plug-In . SVG Version: 6.00 Build 0)  -->
<svg version="1.1" id="Layer_1" xmlns="http://www.w3.org/2000/svg" xmlns:xlink="http://www.w3.org/1999/xlink" x="0px" y="0px"
	 viewBox="0 0 76 71.2" style="enable-background:new 0 0 76 71.2;" xml:space="preserve">
<style type="text/css">
	.st0{fill-rule:evenodd;clip-rule:evenodd;fill:#9E9E9E;}
</style>
<g>
	<g id="Page-1">
		<g id="Group" transform="translate(10.000000, 0.000000)">
			<path id="Fill-21" class="st0" d="M14.7,41c0.2,0.2,0.6,0.3,0.8,0.3c0.3,0,0.6-0.1,0.8-0.3l2.1-2.1l2.1,2.1
				c0.2,0.2,0.6,0.3,0.8,0.3c0.3,0,0.6-0.1,0.8-0.3c0.5-0.5,0.5-1.1,0-1.6L20,37.3l2.1-2.1c0.5-0.5,0.5-1.1,0-1.6
				c-0.5-0.5-1.1-0.5-1.6,0l-2.1,2.1l-2.1-2.1c-0.5-0.5-1.1-0.5-1.6,0s-0.5,1.1,0,1.6l2.1,2.1l-2.1,2.1C14.3,39.7,14.3,40.5,14.7,41
				"/>
			<path id="Fill-22" class="st0" d="M34.2,41c0.2,0.2,0.6,0.3,0.8,0.3s0.6-0.1,0.8-0.3l2.1-2.1l2.1,2.1c0.2,0.2,0.6,0.3,0.8,0.3
				s0.6-0.1,0.8-0.3c0.5-0.5,0.5-1.1,0-1.6l-2.1-2.1l2.1-2.1c0.5-0.5,0.5-1.1,0-1.6s-1.1-0.5-1.6,0l-2.1,2.1l-2.1-2.1
				c-0.5-0.5-1.1-0.5-1.6,0s-0.5,1.1,0,1.6l2.1,2.1l-2.1,2.1C33.7,39.7,33.7,40.5,34.2,41"/>
			<path id="Fill-23" class="st0" d="M36.1,20v-0.5h5.7c0.7,0,1.1-0.5,1.1-1.1v-2.3c0-0.7-0.5-1.1-1.1-1.1c-0.7,0-1.1,0.5-1.1,1.1
				v1.1h-4.6v-8c0-4.5-3.5-8-8-8s-8,3.5-8,8v8h-4.6v-1.1c0-0.7-0.5-1.1-1.1-1.1c-0.7,0-1.1,0.5-1.1,1.1v2.3c0,0.7,0.5,1.1,1.1,1.1
				h5.7V20C11.2,23.4,5.2,31.8,5.2,41.4c0,8.5,4.6,16.1,12,20.1c0.1,0.1,0.3,0.1,0.6,0.1c0.5,0,0.8-0.2,1-0.6
				c0.3-0.6,0.1-1.3-0.5-1.6C11.8,56,7.5,49,7.5,41.4c0-8.3,5-15.8,12.6-18.9v6.3H19c-0.7,0-1.1,0.5-1.1,1.1c0,0.7,0.5,1.1,1.1,1.1
				h18.3c0.7,0,1.1-0.5,1.1-1.1c0-0.7-0.5-1.1-1.1-1.1h-1.1v-6.2c7.4,3.2,12.4,10.6,12.4,18.9c0,7.4-4.1,14.4-10.6,18
				c-0.6,0.3-0.8,1-0.5,1.6c0.2,0.3,0.6,0.6,1,0.6c0.2,0,0.3,0,0.6-0.1c7.3-4,11.8-11.7,11.8-20C50.8,31.8,44.9,23.4,36.1,20
				L36.1,20z M28.1,3.6c3.2,0,5.7,2.5,5.7,5.7v8H22.4v-8C22.4,6.1,24.9,3.6,28.1,3.6L28.1,3.6z M22.4,19.6H27v9.2h-4.6V19.6z
				 M29.3,19.6h4.6v9.2h-4.6C29.3,28.7,29.3,19.6,29.3,19.6z"/>
			<path id="Fill-24" class="st0" d="M41.8,45.9c0-0.7-0.5-1.1-1.1-1.1H15.5c-0.7,0-1.1,0.5-1.1,1.1c0,4.7,1.8,7.8,5.7,10.2v8.1
				c0,0.3,0.2,0.7,0.5,0.9l6.9,4.6c0.2,0.1,0.5,0.2,0.7,0.2s0.5-0.1,0.7-0.2l6.9-4.6c0.3-0.2,0.5-0.6,0.5-0.9V56
				C40,53.6,41.8,50.4,41.8,45.9L41.8,45.9z M36.1,53.1v-6.2h3.4C39.3,49.6,38.2,51.5,36.1,53.1L36.1,53.1z M16.7,47h3.4v6.3
				C18,51.6,16.9,49.7,16.7,47L16.7,47z M28.1,67.4l-5.7-3.8V47H27v11.4c0,0.7,0.5,1.1,1.1,1.1s1.1-0.5,1.1-1.1V47h4.6v16.6
				L28.1,67.4L28.1,67.4z"/>
		</g>
	</g>
</g>
</svg>
