<?xml version="1.0" encoding="utf-8"?>
<!-- Generator: Adobe Illustrator 23.0.1, SVG Export Plug-In . SVG Version: 6.00 Build 0)  -->
<svg version="1.1" id="Layer_1" xmlns="http://www.w3.org/2000/svg" xmlns:xlink="http://www.w3.org/1999/xlink" x="0px" y="0px"
	 viewBox="0 0 76 71.2" style="enable-background:new 0 0 76 71.2;" xml:space="preserve">
<style type="text/css">
	.st0{fill:#0A0B09;}
</style>
<g xmlns:sketch="http://www.bohemiancoding.com/sketch/ns">
	<title></title>
	<desc></desc>
	<g>
		<path d="M53.5,32.6l0.7-0.4l-1-1.8l-12.8,7l1,1.8l0.5-0.3c0.6,3.2,3.5,5.6,6.9,5.6c3.9,0,7-3.1,7-7C55.7,35.6,54.8,33.9,53.5,32.6
			z M48.7,42.6c-2.6,0-4.8-2.1-5-4.7l7.9-4.3c1.2,0.9,2,2.4,2,4C53.7,40.4,51.4,42.6,48.7,42.6z"/>
		<g>
			<path class="st0" d="M60,27.1C59.6,16.8,49.9,8.6,38,8.6c-11.6,0-21.1,7.8-21.9,17.7l0,0l0,0v19.3c0,4,2.3,6.6,6,6.9v4.1
				c0,3.4,2.4,6,5.7,6h20c3.4,0,6.3-2.7,6.3-6v-4.1c3.1-0.3,6-2.2,6-5.9L60,27.1L60,27.1z M58,46.6c0,3-2.7,4-5,4c-0.6,0-1,0.4-1,1
				v5c0,2.1-2,4-4.3,4H47v-7c0-0.6-0.4-1-1-1s-1,0.4-1,1v7h-6v-7c0-0.6-0.4-1-1-1s-1,0.4-1,1v7h-6v-7c0-0.6-0.4-1-1-1s-1,0.4-1,1v7
				h-1.3c-2.1,0-3.7-1.7-3.7-4v-5c0-0.6-0.4-1-1-1c-3.2,0-5-1.8-5-5v-18l0,0c0-9.4,9-17,20-17s20,7.6,20,17l0,0V46.6z"/>
			<path class="st0" d="M33.9,39.5l1-1.8l-12.8-7l-1,1.8l0.6,0.3c-1.2,1.3-2,3-2,4.9c0,3.9,3.1,7,7,7c3.3,0,6.1-2.3,6.8-5.4
				L33.9,39.5z M26.7,42.6c-2.8,0-5-2.2-5-5c0-1.6,0.7-2.9,1.8-3.9l8.1,4.4C31.3,40.7,29.2,42.6,26.7,42.6z"/>
			<path class="st0" d="M38,48.4c2.3,0,3.3-1.1,4.7-2.9h-9C33.7,45.6,36.1,48.4,38,48.4z"/>
		</g>
	</g>
</g>
</svg>
